<svg width="18" height="15" viewBox="0 0 18 15" fill="none" xmlns="http://www.w3.org/2000/svg">
<path d="M1.09525 11.6716H14.0167C14.1326 11.6716 14.2446 11.6317 14.3334 11.559C14.4575 11.4568 17.2886 9.06135 17.4613 3.89052H3.58388C3.41191 8.58424 0.804615 10.7904 0.77752 10.8124C0.618672 10.9445 0.560228 11.1601 0.631692 11.352C0.702661 11.5433 0.887616 11.6716 1.09525 11.6716Z" fill="#888888"/>
<path d="M16.9833 0.972631H14.5111V0.486315C14.5111 0.213979 14.2936 0 14.0167 0C13.7398 0 13.5222 0.213979 13.5222 0.486315V0.972631H11.017V0.486315C11.017 0.213979 10.7995 0 10.5226 0C10.2457 0 10.0282 0.213979 10.0282 0.486315V0.972631H7.55594V0.486315C7.55594 0.213979 7.33839 0 7.0615 0C6.78461 0 6.56705 0.213979 6.56705 0.486315V0.972631H4.09484C3.81795 0.972631 3.60039 1.18661 3.60039 1.45895V2.91789H17.4778V1.45895C17.4778 1.18661 17.2602 0.972631 16.9833 0.972631Z" fill="#888888"/>
<path d="M14.9684 12.3047C14.6999 12.5245 14.3629 12.6442 14.0167 12.6442H3.60043V14.1032C3.60043 14.372 3.82158 14.5895 4.09487 14.5895H16.9834C17.2567 14.5895 17.4778 14.372 17.4778 14.1032V8.65171C16.5245 10.952 15.1943 12.1187 14.9684 12.3047Z" fill="#888888"/>
</svg>
