<svg width="22" height="28" viewBox="0 0 22 28" fill="none" xmlns="http://www.w3.org/2000/svg">
<path d="M19.5861 23.238V23.1704C19.5861 21.9695 18.6091 20.9925 17.4082 20.9925H16.6033V9.86125C16.6033 9.63474 16.4197 9.45109 16.1931 9.45109C15.9665 9.45109 15.7829 9.63474 15.7829 9.86125V20.9925H14.9457V2.58809H15.7829V7.94719C15.7829 8.1737 15.9665 8.35734 16.1931 8.35734C16.4197 8.35734 16.6033 8.1737 16.6033 7.94719V2.58809H16.69C17.4035 2.58809 17.9841 2.00758 17.9841 1.29402C17.9841 0.580453 17.4035 0 16.69 0H14.0384C13.3248 0 12.7443 0.580508 12.7443 1.29407C12.7443 2.00763 13.3248 2.58814 14.0384 2.58814H14.1254V3.53555H13.3359C12.9312 3.53555 12.5508 3.69316 12.2646 3.97928L10.5403 5.70358C10.3585 5.88536 10.2584 6.12708 10.2584 6.38422V7.15389C10.2584 7.27677 10.2815 7.39698 10.3272 7.51138L12.2196 12.2424C12.451 12.8209 13.0032 13.1947 13.6263 13.1947H14.1254V16.7939H12.2939V16.6517C12.2939 15.9992 11.763 15.4683 11.1104 15.4683H7.69575C7.46918 15.4683 7.2856 15.6519 7.2856 15.8785C7.2856 16.105 7.46918 16.2886 7.69575 16.2886H11.1104C11.3107 16.2886 11.4736 16.4515 11.4736 16.6517V17.6777H4.55997V16.6517C4.55997 16.4515 4.72288 16.2886 4.9231 16.2886H5.78169C6.00826 16.2886 6.19185 16.105 6.19185 15.8785C6.19185 15.6519 6.00826 15.4683 5.78169 15.4683H4.9231C4.27051 15.4683 3.73966 15.9992 3.73966 16.6517V21.1165C3.73966 21.3712 3.66829 21.62 3.53327 21.8361L2.81757 22.9811H1.94006C1.10471 22.9811 0.425049 23.6608 0.425049 24.4961V27.0373C0.425049 27.5681 0.856861 27.9999 1.38766 27.9999H14.646C15.1768 27.9999 15.6087 27.5681 15.6087 27.0373V26.0112H16.8129C17.0082 27.1391 17.9931 27.9999 19.176 27.9999C20.4988 27.9999 21.5749 26.9238 21.5749 25.601C21.5749 24.4182 20.7141 23.4332 19.5861 23.238ZM14.0384 1.76777C13.7772 1.76777 13.5647 1.55526 13.5647 1.29402C13.5647 1.03277 13.7771 0.820313 14.0384 0.820313H16.69C16.9512 0.820313 17.1637 1.03283 17.1637 1.29407C17.1637 1.55531 16.9512 1.76783 16.69 1.76783L14.0384 1.76777ZM13.6262 12.3745C13.3405 12.3745 13.0873 12.2031 12.9812 11.9378L11.0888 7.20699C11.0821 7.18999 11.0786 7.17216 11.0786 7.15395V6.38427C11.0786 6.34627 11.0934 6.3105 11.1203 6.28365L12.8446 4.55935C12.9758 4.42816 13.1502 4.35586 13.3358 4.35586H14.1253V12.3745H13.6262ZM14.1254 17.6142V18.5617H12.294L12.2939 17.6142H14.1254ZM14.1254 19.3821V20.9925H12.294V19.3821H14.1254ZM4.22895 22.2709C4.44551 21.9243 4.56003 21.5252 4.56003 21.1166V18.498H11.4738V21.1166C11.4738 21.5252 11.5882 21.9244 11.8048 22.2709L12.2488 22.9812H3.78499L4.22895 22.2709ZM14.7883 25.1907H12.5826C12.3561 25.1907 12.1725 25.3743 12.1725 25.6009C12.1725 25.8274 12.3561 26.011 12.5826 26.011H14.7883V27.0374C14.7883 27.1159 14.7245 27.1797 14.646 27.1797H1.3876C1.30913 27.1797 1.24531 27.1159 1.24531 27.0374V26.011H10.6686C10.8951 26.011 11.0787 25.8274 11.0787 25.6009C11.0787 25.3743 10.8951 25.1907 10.6686 25.1907H1.24536V24.4962C1.24536 24.1132 1.55697 23.8015 1.94006 23.8015H14.0936C14.4767 23.8015 14.7883 24.1132 14.7883 24.4962V25.1907ZM16.8129 25.1909H15.6086V24.4962C15.6086 23.6608 14.9289 22.9812 14.0936 22.9812H13.2161L12.5004 21.8361C12.4956 21.8285 12.4915 21.8205 12.4869 21.8128H17.4081C18.1567 21.8128 18.7658 22.4218 18.7658 23.1704V23.238C17.7713 23.4101 16.985 24.1964 16.8129 25.1909ZM19.176 27.1797C18.3056 27.1797 17.5974 26.4715 17.5974 25.6011C17.5974 24.7306 18.3056 24.0225 19.176 24.0225C20.0464 24.0225 20.7546 24.7306 20.7546 25.6011C20.7546 26.4715 20.0464 27.1797 19.176 27.1797Z" fill="black"/>
<path d="M9.23224 19.5007H6.80155C6.33167 19.5007 5.94946 19.883 5.94946 20.3528V21.1263C5.94946 21.5961 6.33167 21.9783 6.80155 21.9783H9.23224C9.70212 21.9783 10.0843 21.5961 10.0843 21.1263V20.3528C10.0843 19.883 9.70212 19.5007 9.23224 19.5007ZM9.26402 21.1263C9.26402 21.1438 9.24974 21.158 9.23224 21.158H6.80155C6.78405 21.158 6.76978 21.1438 6.76978 21.1263V20.3528C6.76978 20.3353 6.78405 20.321 6.80155 20.321H9.23224C9.24974 20.321 9.26402 20.3353 9.26402 20.3528V21.1263Z" fill="black"/>
<path d="M19.176 26.0112C19.4025 26.0112 19.5862 25.8276 19.5862 25.6011C19.5862 25.3746 19.4025 25.1909 19.176 25.1909C18.9495 25.1909 18.7659 25.3746 18.7659 25.6011C18.7659 25.8276 18.9495 26.0112 19.176 26.0112Z" fill="black"/>
</svg>
