<svg width="16" height="11" viewBox="0 0 16 11" fill="none" xmlns="http://www.w3.org/2000/svg">
<path d="M9.33716 7.15498C8.93909 7.39857 8.47672 7.52735 8 7.52735C7.52331 7.52735 7.06094 7.39857 6.66288 7.15498L0.106531 3.14263C0.0701562 3.12037 0.0347187 3.09716 0 3.07329V9.64796C0 10.4018 0.666406 11 1.47291 11H14.5271C15.3482 11 16 10.3883 16 9.64796V3.07327C15.9652 3.09719 15.9297 3.12045 15.8932 3.14274L9.33716 7.15498Z" fill="white"/>
<path d="M0.626562 2.42658L7.18291 6.43895C7.43109 6.59084 7.71553 6.66678 7.99997 6.66678C8.28444 6.66678 8.56891 6.59082 8.81709 6.43895L15.3734 2.42658C15.7658 2.18662 16 1.78502 16 1.35158C16 0.6063 15.3395 0 14.5276 0H1.47241C0.660531 2.86857e-05 0 0.606329 0 1.3523C0 1.78502 0.23425 2.18662 0.626562 2.42658Z" fill="white"/>
</svg>
