<svg width="26" height="22" viewBox="0 0 26 22" fill="none" xmlns="http://www.w3.org/2000/svg">
<path d="M20.5048 0.418628L25.0291 4.94289C25.0291 4.9429 25.0291 4.94291 25.0291 4.94292C25.3824 5.29595 25.3824 5.86824 25.0291 6.22128C25.0291 6.22129 25.0291 6.2213 25.0291 6.22131L20.5048 10.7456C20.3284 10.922 20.0967 11.0104 19.8657 11.0104C19.6346 11.0104 19.403 10.922 19.2265 10.7456L20.5048 0.418628ZM20.5048 0.418628C20.1516 0.065424 19.5795 0.0653751 19.2265 0.418662C18.8735 0.771804 18.8732 1.34388 19.2265 1.69698C19.2265 1.697 19.2265 1.69701 19.2265 1.69702L22.2076 4.67805M20.5048 0.418628L22.2076 4.67805M22.2076 4.67805H1.7685C1.26928 4.67805 0.864451 5.08241 0.864451 5.5821C0.864451 6.08179 1.26928 6.48615 1.7685 6.48615H22.2076L19.2265 9.46721C18.8733 9.8204 18.8732 10.3925 19.2265 10.7456L22.2076 4.67805ZM24.39 17.0428C24.8892 17.0428 25.294 16.6385 25.294 16.1388C25.294 15.6391 24.8892 15.2347 24.39 15.2347H3.9509L6.93194 12.2537C7.28527 11.9006 7.28493 11.3285 6.932 10.9753C6.57894 10.6221 6.00682 10.6221 5.65361 10.9753L1.12936 15.4996C0.776068 15.8526 0.776117 16.4248 1.12932 16.778L5.65361 21.3022C5.83007 21.4787 6.06174 21.5671 6.29279 21.5671C6.52383 21.5671 6.75548 21.4787 6.93194 21.3023C7.28522 20.9492 7.28517 20.3771 6.93197 20.0239L3.9509 17.0428H24.39Z" fill="black" stroke="black" stroke-width="0.3"/>
</svg>
