<svg width="26" height="15" viewBox="0 0 26 15" fill="none" xmlns="http://www.w3.org/2000/svg">
<path d="M12.7089 0C7.85257 0 3.44858 2.61328 0.198881 6.85793C-0.0662938 7.20569 -0.0662938 7.69152 0.198881 8.03928C3.44858 12.289 7.85257 14.9023 12.7089 14.9023C17.5653 14.9023 21.9692 12.289 25.2189 8.04439C25.4841 7.69663 25.4841 7.2108 25.2189 6.86305C21.9692 2.61328 17.5653 0 12.7089 0ZM13.0573 12.6982C9.83358 12.8976 7.17143 10.2843 7.37421 7.10852C7.5406 4.49013 9.69839 2.3678 12.3605 2.20415C15.5842 2.0047 18.2464 4.61798 18.0436 7.7938C17.872 10.4071 15.7142 12.5294 13.0573 12.6982ZM12.8961 10.2741C11.1595 10.3815 9.72439 8.97515 9.83878 7.26706C9.92717 5.85558 11.0919 4.71515 12.5269 4.6231C14.2636 4.5157 15.6986 5.92206 15.5842 7.63015C15.4907 9.04674 14.326 10.1872 12.8961 10.2741Z" fill="#888888"/>
</svg>
