<svg width="69" height="68" viewBox="0 0 69 68" fill="none" xmlns="http://www.w3.org/2000/svg">
<path d="M34.5 0C15.525 0 0 15.3273 0 34.2049C0 51.2731 12.627 65.4398 29.118 68V44.1044H20.355V34.2049H29.118V26.6606C29.118 18.0924 34.2585 13.3815 42.1589 13.3815C45.9194 13.3815 49.8524 14.0301 49.8524 14.0301V22.4618H45.5054C41.2274 22.4618 39.882 25.0903 39.882 27.7872V34.2049H49.4729L47.9204 44.1044H39.882V68C48.0115 66.7294 55.4145 62.6252 60.7541 56.4277C66.0936 50.2306 69.0185 42.3485 68.9999 34.2049C68.9999 15.3273 53.4749 0 34.5 0Z" fill="white"/>
</svg>
