<svg width="29" height="27" viewBox="0 0 29 27" fill="none" xmlns="http://www.w3.org/2000/svg">
<path d="M15.3576 6.02393L15.4747 6.09109C15.8243 5.48138 16.4184 4.61469 17.2673 3.93121L15.3576 6.02393ZM15.3576 6.02393L15.4747 6.09109C15.2694 6.44893 14.9051 6.66595 14.5 6.66595C14.0949 6.66595 13.7306 6.44893 13.5253 6.09109L13.5253 6.09106C13.1759 5.48138 12.5818 4.61469 11.7327 3.93121C10.7827 3.16672 9.71046 2.78106 8.54266 2.78106C6.94338 2.78106 5.47506 3.44471 4.40559 4.65177C3.31921 5.87821 2.71641 7.57896 2.71641 9.44489C2.71641 11.4053 3.41431 13.164 5.00115 15.1567L4.89874 15.2383M15.3576 6.02393L4.89874 15.2383M4.89874 15.2383L5.00115 15.1567C6.53893 17.0879 8.82915 19.1198 11.496 21.4851C11.4962 21.4853 11.4964 21.4855 11.4966 21.4856L11.5004 21.4889L11.5015 21.4899C12.4071 22.2932 13.431 23.2014 14.4979 24.171C15.5709 23.1995 16.5965 22.2898 17.504 21.4852C20.1709 19.1197 22.4612 17.0881 23.9991 15.1567C25.5857 13.1641 26.2836 11.4053 26.2836 9.44489C26.2836 7.57895 25.6808 5.8782 24.5944 4.65175C23.5251 3.44471 22.0566 2.78106 20.4575 2.78106C19.2895 2.78106 18.2173 3.16672 17.2673 3.93119L4.89874 15.2383ZM10.2955 22.9437L10.2965 22.9446C11.2244 23.7674 12.2753 24.6997 13.3653 25.6916C13.6785 25.9771 14.0814 26.135 14.5 26.135C14.9184 26.135 15.3214 25.9771 15.6344 25.6921C16.7269 24.6978 17.7795 23.764 18.709 22.9399L18.709 22.9399L18.7172 22.9326C21.4306 20.526 23.7863 18.4366 25.4279 16.375C27.2693 14.0627 28.135 11.8585 28.135 9.44489C28.135 7.10682 27.3648 4.94372 25.9593 3.35706L25.8583 3.44657L25.9593 3.35705C24.5364 1.75083 22.5817 0.865001 20.4575 0.865001C18.8671 0.865001 17.4101 1.38907 16.1307 2.4189C15.5315 2.90112 14.9858 3.48269 14.5 4.15452C14.0143 3.48268 13.4685 2.90111 12.8696 2.41892L12.8695 2.41891C11.5901 1.38907 10.1331 0.865001 8.54266 0.865001C6.41827 0.865001 4.46384 1.75083 3.04087 3.35705L3.04087 3.35706C1.63539 4.94371 0.865001 7.10681 0.865001 9.44489C0.865001 11.8585 1.7309 14.0627 3.57231 16.3752L3.67792 16.2911L3.57231 16.3752C5.21432 18.4371 7.57112 20.5274 10.2858 22.935L10.2908 22.9394L10.2918 22.9403L10.2955 22.9437Z" fill="#0B8297" stroke="#0B8297" stroke-width="0.269998"/>
</svg>
