<svg width="60" height="60" viewBox="0 0 60 60" fill="none" xmlns="http://www.w3.org/2000/svg">
<path fill-rule="evenodd" clip-rule="evenodd" d="M29.9905 0C21.8456 0 20.8243 0.0345238 17.6255 0.180476C14.4333 0.326071 12.2532 0.833096 10.3456 1.57452C8.37345 2.34083 6.70095 3.36632 5.03358 5.03357C3.3663 6.70094 2.34083 8.37344 1.57452 10.3456C0.833095 12.2532 0.326072 14.4333 0.180476 17.6255C0.0345238 20.8243 0 21.8456 0 29.9907C0 38.1355 0.0345238 39.1567 0.180476 42.3557C0.326072 45.5477 0.833095 47.728 1.57452 49.6355C2.34083 51.6077 3.3663 53.2802 5.03358 54.9475C6.70095 56.6147 8.37345 57.6402 10.3456 58.4067C12.2532 59.148 14.4333 59.655 17.6255 59.8007C20.8243 59.9465 21.8456 59.981 29.9905 59.981C38.1355 59.981 39.1567 59.9465 42.3555 59.8007C45.5477 59.655 47.7278 59.148 49.6355 58.4067C51.6075 57.6402 53.28 56.6147 54.9475 54.9475C56.6148 53.2802 57.6402 51.6077 58.4067 49.6355C59.148 47.728 59.655 45.5477 59.8005 42.3557C59.9465 39.1567 59.981 38.1355 59.981 29.9907C59.981 21.8456 59.9465 20.8243 59.8005 17.6255C59.655 14.4333 59.148 12.2532 58.4067 10.3456C57.6402 8.37344 56.6148 6.70094 54.9475 5.03357C53.28 3.36632 51.6075 2.34083 49.6355 1.57452C47.7278 0.833096 45.5477 0.326071 42.3555 0.180476C39.1567 0.0345238 38.1355 0 29.9905 0ZM19.9937 29.9907C19.9937 35.5117 24.4694 39.9875 29.9905 39.9875C35.5117 39.9875 39.9875 35.5117 39.9875 29.9907C39.9875 24.4694 35.5117 19.9937 29.9905 19.9937C24.4694 19.9937 19.9937 24.4694 19.9937 29.9907ZM14.59 29.9907C14.59 21.485 21.485 14.59 29.9905 14.59C38.496 14.59 45.391 21.485 45.391 29.9907C45.391 38.496 38.496 45.391 29.9905 45.391C21.485 45.391 14.59 38.496 14.59 29.9907ZM45.9995 17.5804C47.9872 17.5804 49.5985 15.9692 49.5985 13.9815C49.5985 11.9939 47.9872 10.3826 45.9995 10.3826C44.012 10.3826 42.4008 11.9939 42.4008 13.9815C42.4008 15.9692 44.012 17.5804 45.9995 17.5804Z" fill="white"/>
</svg>
