<svg width="19" height="19" viewBox="0 0 19 19" fill="none" xmlns="http://www.w3.org/2000/svg">
<path d="M9.42188 5.12991C11.8377 5.12991 13.8317 7.12394 13.8317 9.53978C13.8317 11.994 11.8377 13.9496 9.42188 13.9496C6.96769 13.9496 5.01201 11.994 5.01201 9.53978C5.01201 7.12394 6.96769 5.12991 9.42188 5.12991ZM9.42188 12.4158C10.9941 12.4158 12.2595 11.1503 12.2595 9.53978C12.2595 7.96756 10.9941 6.70212 9.42188 6.70212C7.81131 6.70212 6.54587 7.96756 6.54587 9.53978C6.54587 11.1503 7.84966 12.4158 9.42188 12.4158ZM15.0205 4.97652C15.0205 5.55172 14.5603 6.01188 13.9851 6.01188C13.4099 6.01188 12.9498 5.55172 12.9498 4.97652C12.9498 4.40132 13.4099 3.94116 13.9851 3.94116C14.5603 3.94116 15.0205 4.40132 15.0205 4.97652ZM17.9348 6.01188C18.0115 7.43071 18.0115 11.6872 17.9348 13.106C17.8581 14.4865 17.5514 15.6752 16.5544 16.7106C15.5573 17.7076 14.3303 18.0144 12.9498 18.0911C11.5309 18.1678 7.27446 18.1678 5.85563 18.0911C4.47515 18.0144 3.2864 17.7076 2.25104 16.7106C1.25403 15.6752 0.947256 14.4865 0.870563 13.106C0.79387 11.6872 0.79387 7.43071 0.870563 6.01188C0.947256 4.6314 1.25403 3.40431 2.25104 2.40729C3.2864 1.41028 4.47515 1.10351 5.85563 1.02681C7.27446 0.950119 11.5309 0.950119 12.9498 1.02681C14.3303 1.10351 15.5573 1.41028 16.5544 2.40729C17.5514 3.40431 17.8581 4.6314 17.9348 6.01188ZM16.0942 14.6015C16.5544 13.4895 16.4393 10.8052 16.4393 9.53978C16.4393 8.31268 16.5544 5.62842 16.0942 4.47802C15.7874 3.74943 15.2122 3.13588 14.4836 2.86745C13.3332 2.40729 10.649 2.52233 9.42188 2.52233C8.15643 2.52233 5.47217 2.40729 4.36011 2.86745C3.59318 3.17423 3.01798 3.74943 2.7112 4.47802C2.25104 5.62842 2.36608 8.31268 2.36608 9.53978C2.36608 10.8052 2.25104 13.4895 2.7112 14.6015C3.01798 15.3685 3.59318 15.9437 4.36011 16.2504C5.47217 16.7106 8.15643 16.5956 9.42188 16.5956C10.649 16.5956 13.3332 16.7106 14.4836 16.2504C15.2122 15.9437 15.8258 15.3685 16.0942 14.6015Z" fill="#0B8297"/>
</svg>
