<svg width="51" height="51" viewBox="0 0 51 51" fill="none" xmlns="http://www.w3.org/2000/svg">
<path d="M1.65413 15.1116C1.77105 12.5566 2.1711 10.9088 2.71213 9.51005L2.7194 9.49073C3.25553 8.06738 4.0954 6.77797 5.18055 5.71222L5.19578 5.69727L5.21073 5.68205C6.27735 4.5955 7.56723 3.75645 8.98933 3.22175L9.01385 3.21238C10.4094 2.66965 12.054 2.27108 14.6111 2.15418M1.65413 15.1116C1.5312 17.8415 1.49988 18.6877 1.49988 25.7657C1.49988 32.8452 1.52948 33.6895 1.65405 36.42M1.65413 15.1116V15.8002M14.6111 2.15418C17.3417 2.0296 18.1876 2 25.2655 2C32.3435 2 33.189 2.0313 35.9187 2.1542M14.6111 2.15418H15.3015M1.65405 36.42C1.77095 38.9772 2.16953 40.6218 2.71225 42.0173L2.72163 42.042M1.65405 36.42L1.69593 36.6405M1.65405 36.42V35.7298M1.65413 15.8002C1.66368 15.5814 1.67398 15.3534 1.685 15.1108C1.81313 12.3153 2.28835 10.682 2.74133 9.5235C3.32758 8.01055 4.0702 6.8689 5.20475 5.72965C6.28315 4.6234 7.59413 3.77093 9.04265 3.23395C10.196 2.7866 11.8251 2.3128 14.61 2.18515C14.8533 2.1741 15.0821 2.16378 15.3015 2.15418M1.65413 15.8002C1.55295 18.1136 1.5312 19.3898 1.5312 25.7657C1.5312 32.1395 1.55295 33.4175 1.65405 35.7298M1.65413 15.8002L1.65405 35.7298M2.72163 42.042C3.25633 43.464 4.09538 44.7538 5.18193 45.8205L5.19713 45.8355L5.21205 45.8505C6.27785 46.9357 7.5673 47.7758 8.99065 48.3118L9.0119 48.3198C10.4087 48.8615 12.0541 49.2602 14.6111 49.3772M2.72163 42.042L2.68958 41.873M2.68958 41.873L1.69593 36.6405M2.68958 41.873C2.26755 40.7582 1.833 39.2025 1.69593 36.6405M2.68958 41.873C2.70438 41.9122 2.71915 41.9508 2.73393 41.9888C3.2691 43.4315 4.11708 44.738 5.21693 45.814C6.29265 46.9138 7.59855 47.7615 9.04085 48.2967C10.1983 48.7475 11.8293 49.2187 14.6107 49.3462C17.4177 49.474 18.2849 49.5 25.2655 49.5C32.2462 49.5 33.1142 49.474 35.9212 49.3462C38.706 49.2185 40.335 48.7447 41.4885 48.2975C42.9315 47.7625 44.2382 46.9143 45.3142 45.814C46.4137 44.7383 47.2615 43.4325 47.7967 41.9902C48.2475 40.8327 48.7187 39.202 48.846 36.4205C48.9737 33.6135 49 32.7445 49 25.7657C49 18.7868 48.9737 17.9171 48.846 15.1101C48.7177 12.3107 48.2397 10.6792 47.7902 9.5248C47.2027 8.00805 46.4577 6.86092 45.3125 5.71567C44.1695 4.57497 43.0255 3.82948 41.5075 3.24135C40.349 2.78843 38.7165 2.31327 35.9212 2.18515C35.678 2.1741 35.4495 2.1638 35.2302 2.1542M1.69593 36.6405C1.69205 36.5683 1.68843 36.4953 1.68503 36.4213C1.67398 36.178 1.66365 35.9493 1.65405 35.7298M35.2302 2.1542H35.9187M35.2302 2.1542L15.3015 2.15418M35.2302 2.1542C32.9177 2.0531 31.64 2.03133 25.2655 2.03133C18.8916 2.03133 17.6137 2.05308 15.3015 2.15418M35.9187 2.1542C38.4742 2.2711 40.1222 2.6711 41.5212 3.21217L41.5405 3.21952C42.9637 3.75565 44.2532 4.59553 45.319 5.68068L45.3337 5.69575L45.349 5.71055C46.4342 6.77638 47.274 8.06615 47.8097 9.4899L47.8187 9.51397C48.3615 10.9095 48.7602 12.5541 48.877 15.1113M48.877 36.42C48.7602 38.977 48.3615 40.6225 47.8197 42.0192L47.8117 42.0405C47.2755 43.464 46.4357 44.7532 45.3505 45.819L45.3352 45.834L45.3205 45.8492C44.2537 46.9357 42.964 47.7747 41.5417 48.3095L41.5172 48.319C40.1217 48.8617 38.477 49.2602 35.92 49.3772M21.0387 35.9703C22.3787 36.5253 23.815 36.811 25.2655 36.811C28.195 36.811 31.0045 35.6472 33.076 33.576C35.1472 31.5045 36.311 28.695 36.311 25.7657C36.311 22.8362 35.1472 20.0268 33.076 17.9554C31.0045 15.884 28.195 14.7202 25.2655 14.7202C23.815 14.7202 22.3787 15.0059 21.0387 15.561C19.6985 16.1161 18.4809 16.9297 17.4553 17.9554C16.4296 18.981 15.616 20.1987 15.0609 21.5388C14.5059 22.8787 14.2202 24.3152 14.2202 25.7657C14.2202 27.2162 14.5059 28.6525 15.0609 29.9925C15.616 31.3327 16.4296 32.5502 17.4553 33.576C18.4809 34.6015 19.6985 35.4153 21.0387 35.9703ZM17.4307 17.9308C19.5087 15.8528 22.327 14.6855 25.2655 14.6855C28.2042 14.6855 31.0225 15.8528 33.1005 17.9308C35.1785 20.0087 36.3457 22.827 36.3457 25.7657C36.3457 28.7042 35.1785 31.5225 33.1005 33.6005C31.0225 35.6785 28.2042 36.8458 25.2655 36.8458C22.327 36.8458 19.5087 35.6785 17.4307 33.6005C15.3527 31.5225 14.1854 28.7042 14.1854 25.7657C14.1854 22.827 15.3527 20.0087 17.4307 17.9308ZM42.585 12.1057C42.585 12.9468 42.2507 13.7535 41.6562 14.3482C41.0615 14.943 40.2547 15.2771 39.4137 15.2771C38.5725 15.2771 37.766 14.943 37.1712 14.3482C36.5765 13.7535 36.2422 12.9468 36.2422 12.1057C36.2422 11.2646 36.5765 10.458 37.1712 9.86325C37.766 9.2685 38.5725 8.93437 39.4137 8.93437C40.2547 8.93437 41.0615 9.2685 41.6562 9.86325C42.2507 10.458 42.585 11.2646 42.585 12.1057Z" stroke="black" stroke-width="2.5" stroke-linejoin="round"/>
</svg>
