<svg width="18" height="15" viewBox="0 0 18 15" fill="none" xmlns="http://www.w3.org/2000/svg">
<path d="M16.0126 1.03345C16.4876 1.03345 16.8459 1.45011 16.6542 2.22511L14.3292 13.1834C14.1667 13.9626 13.6959 14.1501 13.0459 13.7876L7.50008 9.69178C7.47857 9.67635 7.46105 9.65602 7.44896 9.63247C7.43688 9.60892 7.43057 9.58283 7.43057 9.55636C7.43057 9.52989 7.43688 9.50381 7.44896 9.48026C7.46105 9.45671 7.47857 9.43638 7.50008 9.42095L13.9042 3.63761C14.1959 3.37928 13.8417 3.25428 13.4584 3.48761L5.42091 8.55845C5.39654 8.57435 5.36886 8.58448 5.33998 8.58809C5.3111 8.5917 5.28178 8.58869 5.25424 8.57928L1.84174 7.50011C1.08341 7.27928 1.08341 6.75845 2.01258 6.38761L15.6667 1.12095C15.775 1.069 15.8926 1.03925 16.0126 1.03345V1.03345Z" stroke="#020105" stroke-width="0.6" stroke-linecap="round" stroke-linejoin="round"/>
</svg>
