<svg width="18" height="15" viewBox="0 0 18 15" fill="none" xmlns="http://www.w3.org/2000/svg">
<path d="M15.9358 3.73614C15.9358 3.90919 15.9358 4.04762 15.9358 4.22067C15.9358 9.03135 12.3019 14.5342 5.62228 14.5342C3.54573 14.5342 1.64222 13.9459 0.0501957 12.9076C0.327069 12.9422 0.603943 12.9768 0.915426 12.9768C2.61128 12.9768 4.16869 12.3884 5.41462 11.4194C3.8226 11.3848 2.47284 10.3465 2.02292 8.89291C2.26519 8.92752 2.47284 8.96213 2.71511 8.96213C3.02659 8.96213 3.37268 8.89291 3.64955 8.82369C1.98831 8.4776 0.74238 7.02402 0.74238 5.25895V5.22434C1.22691 5.50121 1.81527 5.63965 2.40362 5.67426C1.39996 5.01668 0.776989 3.90919 0.776989 2.66325C0.776989 1.97107 0.950035 1.3481 1.26152 0.828965C3.0612 3.00935 5.76072 4.46293 8.77172 4.63598C8.7025 4.35911 8.66789 4.08223 8.66789 3.80536C8.66789 1.79802 10.2945 0.17139 12.3019 0.17139C13.3401 0.17139 14.2746 0.5867 14.9668 1.31349C15.7628 1.14045 16.5588 0.828965 17.251 0.413654C16.9741 1.27888 16.4204 1.97107 15.659 2.42099C16.3857 2.35177 17.1125 2.14412 17.7355 1.86724C17.251 2.59404 16.628 3.217 15.9358 3.73614Z" fill="#0B8297"/>
</svg>
