<svg width="75" height="55" viewBox="0 0 75 55" fill="none" xmlns="http://www.w3.org/2000/svg">
<path d="M65.8807 1.14448C65.8807 1.14448 56.8295 0 37.3909 0C18.583 0 9.11591 1.14448 9.11591 1.14448C6.69791 1.14539 4.37925 2.1115 2.66978 3.83038C0.960315 5.54925 4.68552e-07 7.88017 6.37511e-07 10.3106V44.6929C-0.000447134 45.8966 0.234987 47.0886 0.692862 48.2008C1.15074 49.3131 1.82209 50.3238 2.66858 51.1753C3.51507 52.0267 4.52012 52.7023 5.62636 53.1633C6.73259 53.6244 7.91834 53.8619 9.11591 53.8624C9.11591 53.8624 17.9182 55 37.3909 55C56.8534 55 65.8807 53.8624 65.8807 53.8624C67.0788 53.8633 68.2653 53.6267 69.3723 53.1662C70.4794 52.7056 71.4852 52.0302 72.3322 51.1785C73.1792 50.3268 73.8509 49.3156 74.3086 48.2027C74.7664 47.0898 75.0013 45.8971 75 44.6929V10.3037C75 9.10034 74.7641 7.90874 74.3057 6.79705C73.8473 5.68535 73.1755 4.67534 72.3286 3.82473C71.4817 2.97413 70.4763 2.29961 69.37 1.83972C68.2636 1.37982 67.0779 1.14358 65.8807 1.14448ZM27.4807 41.1189V13.8948L51.8011 27.4983L27.4807 41.1189Z" fill="white"/>
</svg>
